Motion_mu01
version=1
nRows=8
nColumns=43
inDegrees=yes
endheader
time	pelvis_tilt	pelvis_list	pelvis_rotation	pelvis_tx	pelvis_ty	pelvis_tz	hip_flexion_r	hip_adduction_r	hip_rotation_r	knee_angle_r	ankle_angle_r	subtalar_angle_r	mtp_angle_r	hip_flexion_l	hip_adduction_l	hip_rotation_l	knee_angle_l	ankle_angle_l	subtalar_angle_l	mtp_angle_l	lumbar_extension	lumbar_bending	lumbar_rotation	neck_flexion	neck_lateral_bending	neck_rotation	arm_flex_r	arm_add_r	arm_rot_r	elbow_flex_r	pro_sup_r	wrist_flex_r	wrist_dev_r	hand_finger_flex_r	arm_flex_l	arm_add_l	arm_rot_l	elbow_flex_l	pro_sup_l	wrist_flex_l	wrist_dev_l	hand_finger_flex_l
      0.70250000	     -0.32308510	     -8.48208140	    -88.64732487	      0.01517099	      0.91229866	      1.45965017	     14.36878788	     -9.05425431	    -13.34498931	    -87.81470038	     16.53583159	     -9.73846924	      8.72803107	      9.52481022	     -6.98357478	    -15.79521737	    -89.67465665	     29.12724220	     -0.42496482	     -3.42910542	     15.28663283	      0.80344201	     -3.96266533	      2.63497529	     -3.30840808	      4.09107312	    -13.60121345	   -153.55075726	   -118.75669294	     37.21759621	    104.96652961	     33.21409220	    -12.10113632	     74.76588170	     -5.62426132	    209.08210138	    -98.09441915	     43.03850516	     86.72858741	     24.52485599	      5.44481085	     90.00021046
      0.70500000	     -0.32719904	     -8.56183759	    -88.66928424	      0.01522595	      0.91320963	      1.46233167	     14.34379776	     -9.03715374	    -13.37254999	    -87.80965264	     16.52883060	     -9.73488806	      8.72704480	      9.57580835	     -6.95942522	    -15.82488742	    -89.63644170	     29.12772929	     -0.41983795	     -3.43139806	     15.34937693	      0.81058702	     -3.95716739	      2.62727180	     -3.30543771	      4.08975130	    -13.56506078	   -153.53995504	   -118.75954166	     37.21455068	    104.96032995	     33.21300528	    -12.09922718	     74.76563504	     -5.57715567	    209.07472040	    -98.10634468	     43.03629268	     86.72283274	     24.52480968	      5.44613762	     90.00021046
      0.70750000	     -0.33403761	     -8.63361179	    -88.70327272	      0.01524129	      0.91416080	      1.46497801	     14.32185719	     -9.02406019	    -13.40745757	    -87.77962260	     16.51754126	     -9.72834346	      8.72557552	      9.62381067	     -6.93354202	    -15.85391738	    -89.57707900	     29.12601328	     -0.41243908	     -3.43487513	     15.41181405	      0.82577101	     -3.94326718	      2.61404923	     -3.30126068	      4.08806950	    -13.51915321	   -153.52728245	   -118.75508181	     37.21783544	    104.95007543	     33.21400068	    -12.09718650	     74.76565980	     -5.51036469	    209.06517055	    -98.11651278	     43.03136482	     86.71538799	     24.52718909	      5.44868101	     90.00021046
      0.71000000	     -0.34496632	     -8.69717372	    -88.75102382	      0.01524285	      0.91510034	      1.46763032	     14.30148951	     -9.01745671	    -13.44459101	    -87.71879075	     16.49828668	     -9.71621520	      8.72331176	      9.66418188	     -6.90900603	    -15.87995488	    -89.48696803	     29.12007208	     -0.40128798	     -3.44037830	     15.47874173	      0.85127434	     -3.92216951	      2.59555595	     -3.29481685	      4.08593652	    -13.45787980	   -153.51137184	   -118.73492240	     37.23255332	    104.93245481	     33.21936013	    -12.09506374	     74.76628770	     -5.42751863	    209.05523206	    -98.11569359	     43.02183617	     86.70564486	     24.53557190	      5.45367572	     90.00021046
      0.71250000	     -0.34300993	     -8.79021408	    -88.75930665	      0.01525325	      0.91607111	      1.47014110	     14.32202764	     -9.01643436	    -13.44896754	    -87.70834107	     16.49777683	     -9.71474098	      8.72326278	      9.68945461	     -6.90727084	    -15.88440618	    -89.47363715	     29.12094737	     -0.39991719	     -3.44073884	     15.52162908	      0.85241859	     -3.92539392	      2.59455744	     -3.29419915	      4.08575535	    -13.43707408	   -153.50921721	   -118.73647360	     37.23559194	    104.93006729	     33.21979123	    -12.09501637	     74.76647725	     -5.41526984	    209.05388662	    -98.11620829	     43.02076450	     86.70466605	     24.53655992	      5.45417974	     90.00021046
      0.71500000	     -0.37526795	     -8.81601155	    -88.86172246	      0.01525313	      0.91712348	      1.47282033	     14.29710493	     -8.99312996	    -13.48182202	    -87.52104622	     16.42070459	     -9.65333738	      8.71621037	      9.68783681	     -6.86108111	    -15.91269951	    -89.21771773	     29.07915477	     -0.35899581	     -3.45947028	     15.62137916	      0.92110132	     -3.86960637	      2.55041783	     -3.27603495	      4.08280406	    -13.31644180	   -153.47331850	   -118.58201606	     37.28655493	    104.86690625	     33.25923671	    -12.09111296	     74.77138606	     -5.26080011	    209.03769062	    -98.02801089	     42.98864690	     86.67961553	     24.59127441	      5.47456162	     90.00021046
      0.71750000	     -0.37319802	     -8.91061805	    -88.86936195	      0.01525000	      0.91804841	      1.47532983	     14.30933193	     -8.99098387	    -13.48273110	    -87.52073296	     16.42026749	     -9.65210134	      8.71624648	      9.71735462	     -6.86016110	    -15.91740877	    -89.20837320	     29.08052980	     -0.35787581	     -3.45960970	     15.66745273	      0.91982886	     -3.87387467	      2.55057976	     -3.27573098	      4.08276702	    -13.29748569	   -153.47224484	   -118.58326677	     37.28849127	    104.86477096	     33.25979704	    -12.09118944	     74.77159009	     -5.25210777	    209.03653631	    -98.02779806	     42.98848973	     86.67879789	     24.59246392	      5.47486465	     90.00021046
      0.72000000	     -0.37389442	     -8.98744294	    -88.89518355	      0.01524869	      0.91907465	      1.47788884	     14.26168629	     -8.97749719	    -13.47763980	    -87.54311396	     16.40962746	     -9.64465929	      8.71560135	      9.77115435	     -6.84987660	    -15.92905707	    -89.17218074	     29.07833516	     -0.35205811	     -3.46112448	     15.73673423	      0.92277660	     -3.87279517	      2.54731508	     -3.27445410	      4.08284693	    -13.27243696	   -153.47200186	   -118.56633631	     37.28980573	    104.85762165	     33.26497989	    -12.09099041	     74.77231564	     -5.22658680	    209.03047061	    -98.02064949	     42.98748294	     86.67567110	     24.59908957	      5.47653233	     90.00021046
